<svg width="71" height="70" viewBox="0 0 71 70" fill="none" xmlns="http://www.w3.org/2000/svg">
<path d="M25.2142 51.6798C23.348 50.202 21.3568 48.7858 19.9965 46.7903C17.1328 43.2714 14.9286 39.1981 13.4217 34.917C12.5106 32.1329 12.1986 29.1482 11.0234 26.4722C9.79568 24.528 11.2349 22.4042 13.3503 21.7865C14.2914 21.6038 15.9473 20.7094 13.9484 21.3495C12.1561 22.6724 11.9835 20.1472 13.8209 19.9873C15.075 19.8199 15.5367 18.787 15.1074 17.8571C13.7607 16.9728 18.3718 16.0025 16.0514 14.6833C13.6359 12.0591 19.4316 11.5539 18.0015 14.5347C17.6596 16.8265 22.0528 14.1137 21.0326 16.7608C22.069 18.0323 24.9127 17.0508 24.8413 18.8334C26.3508 18.9378 26.8689 20.2154 28.2844 20.3137C29.7538 20.9815 32.4149 21.5067 32.9141 23.1723C31.4575 24.3328 28.0855 20.7749 27.9226 23.9877C28.3632 28.7348 28.2509 33.6246 29.9756 38.1448C30.7914 40.8815 32.7702 43.0358 34.5562 45.1677C36.266 47.2551 38.5814 48.7255 40.942 49.9627C43.0121 50.9453 45.2439 51.5965 47.5006 52.0061C48.4155 51.3017 50.0312 48.6826 51.4579 49.7862C51.5268 51.0287 48.6259 52.3817 51.3218 52.2443C52.9063 51.763 54.004 53.4762 55.308 51.9304C56.5097 53.3631 60.3018 51.0158 59.4472 53.9438C58.2907 54.6949 56.6048 54.2411 55.4472 55.2744C53.5385 54.3143 52.0187 56.1324 49.9048 55.9031C47.5582 56.3262 45.1698 56.4965 42.7908 56.5C38.8869 56.19 34.9007 56.0592 31.187 54.6908C29.0944 54.0789 27.053 52.8793 25.2142 51.6798ZM28.511 53.1186C30.5537 54.0068 32.5514 54.9442 34.7904 55.2276C38.3426 55.7241 42.0109 56.49 45.5754 55.7921C43.9622 55.059 42.2938 56.0769 40.6867 55.2681C38.7593 55.685 36.6905 55.1609 34.7302 54.9026C32.5022 53.9038 30.097 53.2171 28.0105 51.9191C25.402 50.9605 29.3585 53.1489 30.0631 53.3267C31.6927 54.2573 28.2706 52.8489 27.7873 52.4622C26.4222 51.6911 26.2484 51.8524 27.6525 52.6348C27.9352 52.8013 28.2145 52.9764 28.511 53.1186ZM24.6235 50.3532C26.6036 51.0915 24.6147 48.9521 23.7086 49.0758C23.3067 48.3739 22.173 47.9304 22.9726 47.5537C21.5346 48.0566 21.4657 45.6424 20.79 45.9879C19.268 45.5041 20.1978 43.7905 18.3843 42.7375C18.2189 41.6285 16.5831 40.6673 16.0625 38.9953C15.8322 38.1386 14.2139 35.6807 15.2077 37.9683C16.0537 40.1706 17.5419 42.0582 18.781 43.9417C19.7423 45.7355 20.8789 47.6117 22.6298 48.7305C23.2207 49.3012 23.7901 50.1742 24.6235 50.3532ZM18.9213 44.05C19.2831 44.7012 18.9899 43.7488 18.9213 44.05ZM26.9954 51.2376C27.4334 51.0399 26.3646 50.9883 26.9954 51.2376ZM28.0692 51.6322C27.958 51.0877 27.5786 51.937 28.0692 51.6322ZM29.4148 52.1967C30.0543 51.5826 28.4271 51.8094 29.4148 52.1967ZM31.7203 53.4901C32.1094 52.9119 30.4748 53.2724 31.7203 53.4901ZM27.2935 50.3837C28.2868 49.7359 26.008 50.3746 27.2935 50.3837ZM28.3022 50.89C28.2733 50.5484 27.9429 51.0436 28.3022 50.89ZM33.3448 54.0585C34.1557 54.5739 38.0798 55.1873 35.6229 54.27C35.2108 54.3571 31.0668 53.0895 33.3448 54.0585ZM25.3396 47.7818C25.2607 47.4395 24.0801 47.4027 25.3396 47.7818ZM27.6862 49.1604C28.2981 48.7307 26.4183 48.829 27.6862 49.1604ZM29.6611 50.3787C30.5386 50.0461 28.2396 50.0448 29.6611 50.3787ZM24.3833 46.7349C25.3346 47.4691 28.221 46.8293 25.8401 46.2965C24.7575 45.7156 22.3169 45.3178 23.9806 46.6468L24.3833 46.7349ZM30.9995 50.7993C31.396 50.1201 29.3371 50.411 30.9995 50.7993ZM28.9891 49.1914C31.3147 49.853 27.0329 47.7098 28.4149 48.9471L28.7217 49.087L28.9891 49.1914ZM33.0197 51.5362C35.2224 51.5574 31.0295 51.2303 33.0197 51.5362ZM23.5361 45.4521C23.4496 45.039 22.9929 45.4863 23.5361 45.4521ZM36.7457 53.6402C36.8044 52.8945 36.0271 54.1958 36.7457 53.6402ZM27.2959 47.7691C27.162 47.3761 26.6076 47.7527 27.2959 47.7691ZM23.745 45.1927C25.0094 45.116 22.0127 44.632 23.745 45.1927ZM19.5382 42.456C19.3807 41.8452 18.1628 41.3589 19.5382 42.456ZM30.5814 49.5105C30.4723 49.5683 30.3498 49.2444 30.5814 49.5105ZM37.4539 53.7564C37.4328 53.3493 37.0797 53.9097 37.4539 53.7564ZM29.9731 48.8779C30.0972 48.3539 28.8944 48.719 29.9731 48.8779ZM24.8526 45.611C25.794 45.51 23.3444 44.971 24.8526 45.611ZM33.5141 51.0287C34.9809 50.444 32.0847 50.7438 33.5141 51.0287ZM29.0094 47.9508C30.6989 48.1697 26.9981 46.7928 28.6377 47.8271L29.0094 47.9508ZM34.8817 51.5853C36.4603 50.6368 35.9396 53.8092 37.5593 51.8537C39.1562 50.6796 36.1799 53.3051 38.1475 52.063C39.5718 51.1041 41.6744 52.5177 43.0025 52.9776C43.9573 52.931 44.8862 53.8092 45.866 53.2747C47.7509 52.7631 42.1789 52.5165 43.6393 51.6104C41.9148 52.116 40.6408 51.0083 39.7921 49.8958C37.857 49.4459 35.6204 48.4508 34.6542 46.726C34.2599 46.0798 35.2226 46.8181 34.3138 45.7597C33.1486 44.7164 32.5667 43.5307 31.7842 42.2622C30.8492 41.7607 30.7391 40.2829 30.6452 42.2133C30.6528 40.9948 29.5162 40.1746 29.2383 40.5149C29.2334 39.3417 30.4551 39.9301 29.6001 39.0621C29.4163 37.8462 28.8103 36.579 28.6287 35.2056C28.3462 34.5442 28.5885 33.1269 27.6627 34.6247C27.3258 36.2085 27.5513 32.6795 28.0757 33.8425C28.764 32.6556 27.8277 32.7953 27.7901 32.9593C28.2384 31.9578 28.0744 30.5364 27.6726 31.0782C27.9117 30.016 28.0507 27.1701 27.316 27.6753C27.7614 26.5641 28.1609 22.5926 26.2256 24.1074C25.4422 24.1186 24.0843 24.3935 23.4435 24.7147C25.4548 25.831 23.2406 25.1177 22.4208 24.9401C22.3144 25.9732 21.5034 25.5272 20.4895 25.5372C22.1092 25.7387 19.7009 27.2038 18.7738 26.6346C17.5671 27.2142 19.8139 28.6631 18.7975 29.1114C18.9229 29.7856 16.9501 28.8673 17.1041 30.427C15.9337 29.9303 16.9439 32.2764 17.5296 31.4828C19.521 32.0258 18.9315 33.2618 18.9814 34.437C18.6572 35.121 17.3794 32.8282 18.6972 32.9342C17.6571 31.2343 17.5472 32.3192 16.6834 33.1092C16.4832 33.166 18.8863 34.2328 17.3782 34.7596C18.7049 34.9663 18.7437 36.1354 19.0142 36.8751C19.8114 37.7113 19.6472 35.9512 20.6025 36.957C19.9976 36.0611 17.4031 34.433 19.4923 34.9551C19.4808 34.0542 19.1141 33.3271 19.7549 33.3446C20.3896 32.1893 19.0904 36.1946 20.5198 34.7257C20.915 34.5519 21.0142 33.5691 21.7251 34.8189C22.7575 35.842 22.0981 36.5824 20.6411 35.6453C20.9014 36.536 22.5898 36.8533 22.2719 38.2458C22.6084 39.4704 23.0793 39.0192 23.4896 38.9486C23.8112 40.138 23.9944 39.2637 24.0093 38.6966C25.4824 39.0145 25.1369 39.8912 25.5986 40.5035C26.6136 40.9644 24.1456 37.3776 25.888 39.4249C27.7212 41.0917 26.5763 41.7871 24.9305 41.5202C25.9718 41.4354 26.3069 42.9377 27.6102 42.8847C28.7979 43.4541 29.6028 45.6387 27.5551 44.729C26.8454 44.0839 24.3307 43.2889 26.3848 44.5149C28.2798 45.3993 29.7867 45.9272 31.6152 47.0373C32.9233 47.9772 33.4887 49.054 33.9844 49.2673C32.8844 49.7962 30.6704 48.8452 32.3148 48.5542C31.2885 48.3664 30.1347 47.8437 31.117 49.1299C31.953 49.833 34.0771 49.7584 34.4589 49.8378C34.136 50.5536 33.5817 50.6104 34.4714 50.6657C33.4787 51.1987 34.7904 51.2819 34.8817 51.5853ZM32.8517 45.8139C32.2472 45.1777 32.0909 43.9872 32.7441 45.0224C33.0797 45.1586 33.817 46.9693 32.8517 45.8139ZM39.4642 50.0421C39.8409 50.017 39.4753 50.3303 39.4642 50.0421ZM31.8983 44.2542C32.1157 44.996 31.8742 43.2928 31.8983 44.2542ZM31.241 43.3647C32.1984 43.7829 30.4802 41.8869 31.241 43.3647ZM23.2756 37.8313C23.7226 37.7113 23.496 38.5995 23.2756 37.8313ZM29.6152 41.2896C29.937 42.1591 29.8893 40.2526 29.6152 41.2896ZM25.1369 38.1548C25.7967 38.6918 24.8216 37.583 25.1369 38.1548ZM28.9794 39.3947C28.2597 37.772 29.49 38.5076 29.1396 39.6606L28.9794 39.3947ZM22.3521 34.9459C22.0305 34.4132 21.4984 32.8508 21.6699 32.3735C21.8238 33.1508 23.3109 35.7172 22.3982 33.4369C21.3909 31.5256 23.6037 34.0565 23.8315 34.5342C23.9379 35.0079 23.2094 34.4045 23.7025 35.5168C22.8027 34.2505 23.1717 36.2162 22.3521 34.9459ZM20.3044 33.5249C20.7726 34.374 20.3883 32.2865 20.3044 33.5249ZM21.2257 33.8448C21.9703 35.1476 21.665 32.9103 21.2257 33.8448ZM19.009 32.119C18.2466 31.3553 17.6946 30.6524 19.0452 31.6451C19.5647 31.6653 17.8889 30.0465 19.1706 31.131C20.5171 31.3782 19.8349 33.355 19.009 32.119ZM20.173 32.0888C20.6162 31.6466 20.4084 32.5234 20.173 32.0888ZM20.8902 32.3192C21.705 32.851 20.2179 31.053 20.8902 32.3192ZM19.4659 30.9499C17.2494 28.9627 22.2507 31.9878 19.8277 31.3175L19.4659 30.9499ZM25.8177 34.6638C24.8578 34.0854 25.5624 30.5883 25.8904 32.9795C26.823 32.6757 25.8388 34.2155 26.5336 34.2003C26.4248 35.1713 26.1132 35.5208 25.8177 34.6638ZM28.167 36.0622C28.3648 36.7832 28.2608 35.0079 28.167 36.0622ZM27.7591 35.6553C27.8642 35.2056 27.7691 36.1857 27.7591 35.6553ZM19.9 30.2971C18.4759 28.319 24.0392 32.2976 20.8126 30.7986C20.4758 30.7092 20.0692 30.6777 19.9 30.2971ZM24.4247 32.7113C24.7252 32.9868 24.2897 31.0457 24.4247 32.7113ZM27.8591 34.9295C28.1243 33.981 27.8793 35.5572 27.8591 34.9295ZM20.1192 29.5424C20.9654 29.3598 23.6261 31.0379 21.183 30.0212C20.9116 29.7187 20.332 29.8563 20.1192 29.5424ZM27.387 33.1885C27.4776 31.4853 27.8931 32.1718 27.3909 33.433L27.387 33.1885ZM20.7487 28.9492C21.094 28.44 19.8322 26.6474 20.93 28.3064C21.4047 28.6856 22.3029 28.9415 21.5095 29.1014C22.7573 30.2091 21.2056 29.4014 20.7487 28.9492ZM27.0278 32.657C27.2659 30.7168 27.2383 33.7933 27.0278 32.657ZM20.0277 27.1576C20.2918 27.0439 20.1678 27.5113 20.0277 27.1576ZM21.6661 28.139C22.4432 29.1317 22.0876 27.2481 21.6661 28.139ZM26.2857 30.7254C26.3732 31.2231 26.2819 30.384 26.2857 30.7254ZM26.0177 30.1297C26.6149 30.9724 25.3769 28.5371 26.0177 30.1297ZM25.6246 29.085C25.9902 29.9116 25.5174 28.4273 25.6246 29.085ZM26.2654 28.0369C25.825 27.2568 26.8214 24.5973 26.9328 26.2466C26.4683 27.5317 26.7989 28.25 27.1216 26.5264C27.7201 25.1707 26.9928 29.2037 26.2654 28.0369ZM26.9238 24.0821C27.1156 23.8452 26.9665 24.3679 26.9238 24.0821ZM25.824 45.8944C25.8575 46.0395 25.5635 45.6651 25.824 45.8944ZM28.0893 47.0474C29.3495 47.3737 29.3434 46.8507 28.2042 46.6944C27.5922 46.1214 25.6585 45.5127 27.3895 46.6239C27.5036 46.9164 27.8654 46.9086 28.0893 47.0474ZM23.6162 44.0562C24.3094 44.5781 26.2306 45.5328 24.6048 44.2556C25.153 43.614 23.5559 43.2728 24.0855 42.8433C22.7374 42.0127 23.0213 42.0871 23.9666 42.1136C22.3469 41.384 24.2005 41.4395 24.113 41.0655C23.4885 40.9418 21.0102 39.9565 22.4683 41.146C20.9864 40.3862 22.1152 41.4295 21.6673 41.3198C20.1513 40.9041 23.0167 42.4816 21.4269 42.0897C22.2956 42.7826 23.7662 43.8662 21.7936 42.8229C21.5346 43.1995 23.2058 43.7704 23.6162 44.0562ZM25.9852 45.427C28.8653 46.3607 24.572 44.2843 25.9852 45.427ZM38.1134 52.8225C38.151 52.2468 37.7203 53.3138 38.1134 52.8225ZM39.3601 53.3504C40.0246 52.703 39.3876 54.3835 40.4614 53.1918C40.4725 52.3387 40.4289 51.835 39.2274 52.8716C38.8955 53.057 38.7482 53.8415 39.3601 53.3504ZM19.5721 40.8414C19.3679 40.0338 18.1414 40.0372 19.5721 40.8414ZM20.9024 41.7192C20.408 40.8942 19.1388 40.9723 20.9024 41.7192ZM28.476 46.3166C29.2159 46.9782 31.8717 46.8017 29.3737 46.3986C29.0042 45.848 27.0255 45.9804 28.476 46.3166ZM38.8856 52.789C40.0233 51.8275 37.7831 53.2173 38.8856 52.789ZM41.2525 54.4253C41.2598 54.1167 40.7619 54.5602 41.2525 54.4253ZM41.2563 53.9932C42.5166 52.6502 40.0359 54.0725 41.2563 53.9932ZM16.2977 38.082C15.224 36.5399 15.6307 35.8468 14.5944 34.5869C14.3977 33.6232 12.8172 31.4385 13.7771 33.7529C14.6557 35.1074 14.9158 37.2036 16.2977 38.082ZM40.8607 53.566C43.1802 52.0578 39.9096 52.9096 40.8607 53.566ZM42.6306 54.2639C43.7921 53.2608 41.8958 54.0546 42.6306 54.2639ZM19.1776 39.1363C19.5095 38.6386 18.3192 39.0721 19.1776 39.1363ZM42.2612 53.7876C43.3852 53.0583 42.0022 53.1703 42.0574 53.8542L42.2612 53.7876ZM27.0065 44.1091C26.9679 43.6153 26.4122 44.1508 27.0065 44.1091ZM27.949 44.6548C27.6487 44.045 27.4885 44.7505 27.949 44.6548ZM44.0648 54.2804C45.5054 53.2344 43.1926 54.0799 43.7632 54.4795L44.0648 54.2804ZM43.513 54.012C44.6869 53.0229 42.275 54.4504 43.513 54.012ZM46.3313 55.9004C47.1189 55.37 45.3741 55.7291 46.3313 55.9004ZM19.9 38.7773C20.955 39.0153 24.119 41.394 22.253 38.9425C21.2969 38.6577 21.8701 36.3054 20.8951 36.7212C21.5497 37.8223 21.433 38.2895 20.0587 37.5969C18.333 36.7476 19.0888 38.0165 19.427 38.3668C18.9661 38.4725 20.0353 38.7689 19.9 38.7773ZM15.09 34.9538C15.2789 34.1662 13.3489 30.6247 14.1789 33.1785C14.4779 33.714 14.4468 34.728 15.09 34.9538ZM23.9188 40.4328C23.8925 40.3673 23.3744 39.9756 23.9188 40.4328ZM25.2567 40.7468C25.2567 39.9126 23.7775 40.4077 25.2567 40.7468ZM36.8594 48.1082C36.6379 47.5385 35.9846 48.0955 36.8594 48.1082ZM37.4163 48.5174C37.3335 48.1988 37.0944 48.5793 37.4163 48.5174ZM42.0147 51.4341C42.4566 51.1054 41.4627 51.3915 42.0147 51.4341ZM17.4919 35.5711C18.7571 35.0783 16.1362 35.2195 17.4919 35.5711ZM35.8378 47.2046C35.8231 46.3807 35.0307 47.4102 35.8378 47.2046ZM16.9924 34.3979C17.8047 34.1224 16.2401 34.2168 16.9924 34.3979ZM19.3505 35.5482C19.3365 35.2775 19.1015 35.6516 19.3505 35.5482ZM48.1188 53.3063C49.1639 53.0934 51.5458 53.8419 51.9299 53.0281C50.6609 52.9965 47.5406 52.1258 47.3928 53.2344L47.6707 53.2787L48.1188 53.3063ZM20.1 35.7385C20.1192 34.9031 19.4531 35.7071 20.1 35.7385ZM13.9 31.4083C13.6184 29.8168 12.8285 31.1674 13.9 31.4083ZM15.378 31.7824C15.397 31.2709 14.0248 31.3225 15.378 31.7824ZM16.2229 32.2007C16.0326 32.4512 15.9789 32.0015 16.2229 32.2007ZM21.5409 35.6339C21.7915 35.4019 20.9478 35.4626 21.5409 35.6339ZM15.6609 31.2584C15.5172 30.0565 13.9475 31.0782 15.6609 31.2584ZM12.6281 29.2777C12.5854 28.7234 12.3326 29.4868 12.6281 29.2777ZM13.0798 28.9353C13.0061 28.2774 12.6918 29.0182 13.0798 28.9353ZM15.571 30.4318C16.6249 30.016 13.6519 29.57 15.3556 30.3538L15.571 30.4318ZM48.9189 51.1671C49.5934 50.5447 48.0627 50.9744 48.9189 51.1671ZM52.9478 53.2685C53.2183 52.4649 52.2668 53.3745 52.9478 53.2685ZM15.8255 29.1178C15.9371 28.3394 14.9897 29.2727 15.8255 29.1178ZM12.2801 26.7267C12.0899 25.6281 12.1161 23.6991 13.9373 24.3505C11.5065 24.8368 15.6207 27.3928 15.1013 25.3746C16.1238 25.4252 17.1015 24.7663 16.5644 25.7651C18.5795 25.5422 19.9752 23.7835 21.9213 24.0305C23.4368 23.8278 25.094 23.6752 26.7275 23.0604C28.0704 22.9633 29.3631 21.5081 28.6276 20.6451C26.7964 20.489 24.8787 20.7195 22.8549 21.1252C20.6122 21.5938 18.5747 22.4857 16.3115 22.8689C14.1048 23.1675 16.7546 23.6902 16.1224 23.8074C14.9721 24.2093 17.4956 24.4802 15.9735 24.9047C15.0337 24.7247 14.0548 24.3997 14.4566 23.4018C12.3439 23.6789 10.4865 24.5607 12.1563 26.7252L12.2801 26.7267ZM17.3731 24.116C17.8675 22.2793 20.0263 25.6281 18.1841 24.3605C17.9649 24.1941 17.6018 24.0592 17.3731 24.116ZM17.4691 23.2251C18.1841 22.6899 17.8485 23.5265 17.4691 23.2251ZM18.3766 23.2406C18.4421 22.3951 20.4559 23.6877 18.7085 23.5442L18.3766 23.2406ZM19.6183 22.7379C20.0727 22.2034 19.7499 23.2115 19.6183 22.7379ZM19.9364 22.5238C20.6922 21.6104 24.213 21.9402 21.6359 22.434C20.9449 21.91 20.4157 22.7427 19.9364 22.5238ZM24.532 21.8105C26.8163 22.6963 24.4183 19.3145 24.532 21.8105ZM25.8365 21.8028C26.3131 20.5457 27.6874 21.2978 26.0579 21.5497C26.0928 21.6845 26.0091 22.1999 25.8365 21.8028ZM15.3116 28.4727C16.7357 27.5945 13.7995 27.7107 15.3116 28.4727ZM16.3653 28.7664C16.8649 28.2323 15.2789 28.5496 16.3653 28.7664ZM13.2615 26.5503C14.0749 25.9202 12.2977 26.311 13.2615 26.5503ZM55.3256 53.0392C55.3494 52.3084 54.7036 53.3679 55.3256 53.0392ZM51.0514 50.1024C51.1727 49.2623 50.502 50.1756 51.0514 50.1024ZM56.5009 53.3229C57.6388 53.3267 59.9489 52.966 57.4732 52.9674C57.0841 53.0281 55.2093 53.0155 56.5009 53.3229ZM17.2917 28.2508C18.213 28.1878 18.7322 27.2288 17.1126 27.2832C14.6032 27.0225 19.3266 28.1488 16.791 27.8263C16.4507 28.0531 17.2714 28.3138 17.2917 28.2508ZM18.1027 28.6642C18.0062 28.0695 17.8171 28.9802 18.1027 28.6642ZM19.0651 26.0813C19.4644 25.5823 18.5119 25.9478 19.0651 26.0813ZM16.0011 20.9273C17.6458 20.3655 19.8937 19.733 20.6698 21.2048C19.8799 20.2486 20.3508 19.306 21.0967 20.7058C22.1517 22.1207 22.6796 20.0621 21.9938 19.5869C22.7763 20.5645 23.6648 21.0271 22.5169 19.649C23.7649 18.1382 20.02 19.8467 19.169 19.8289C18.7598 20.0139 14.9409 20.809 16.0011 20.9273ZM16.9648 19.0706C17.9025 18.3588 20.2078 19.495 18.7284 18.3623C18.5833 18.234 15.4894 19.2216 16.9648 19.0706ZM20.3831 19.2128C21.4795 19.2405 19.9102 17.7286 21.2167 18.414C21.0027 17.7086 19.6948 17.5762 19.0553 17.2941C18.6936 17.9392 19.7909 19.2216 20.3831 19.2128ZM17.5643 16.0894C17.9436 15.5717 16.8986 16.3528 17.5643 16.0894ZM18.9615 16.4256C20.7298 16.1901 18.5106 15.6597 18.6044 16.4069L18.9615 16.4256ZM16.3527 14.3721C15.1072 12.7356 18.6945 14.6468 17.429 12.9332C16.364 12.0805 15.3415 13.8947 16.3527 14.3721ZM32.3293 23.034C32.9005 22.0157 29.9728 21.6606 31.9452 22.6733C32.1266 22.734 32.0857 23.1043 32.3293 23.034Z" fill="black"/>
</svg>
