<svg width="70" height="71" viewBox="0 0 70 71" fill="none" xmlns="http://www.w3.org/2000/svg">
<path d="M33.5015 25.8991C33.514 25.9456 33.5204 25.9935 33.5204 26.0418V33.5365C33.5204 33.7324 33.417 33.9132 33.249 34.0106L27.0324 37.6325V44.8109C27.0323 44.907 27.0074 45.0013 26.96 45.0845C26.9126 45.1677 26.8445 45.2369 26.7624 45.2851L13.7853 52.8442C13.7555 52.8611 13.7232 52.872 13.6907 52.8838C13.6785 52.8878 13.6672 52.8953 13.6543 52.8988C13.5636 52.9229 13.4682 52.9229 13.3775 52.8988C13.3626 52.8948 13.3491 52.8864 13.335 52.881C13.3052 52.87 13.2742 52.8605 13.2459 52.8442L0.271437 45.285C0.189008 45.2371 0.120515 45.168 0.0728609 45.0848C0.025207 45.0016 7.57833e-05 44.9071 0 44.8109L0 22.3266C0 22.2773 0.00680883 22.2294 0.0188552 22.1831C0.0229143 22.1673 0.0323419 22.153 0.0378414 22.1372C0.0479237 22.1086 0.0574822 22.0792 0.0722784 22.0526C0.0823607 22.0348 0.0971568 22.0205 0.109334 22.0041C0.124916 21.9822 0.139057 21.9597 0.157258 21.9405C0.17284 21.9248 0.193135 21.9132 0.210681 21.8995C0.230322 21.8831 0.247737 21.8654 0.269996 21.8524L6.75816 18.0729C6.84033 18.0251 6.93345 18 7.02822 18C7.12299 18 7.21611 18.0251 7.29828 18.0729L13.7858 21.8524H13.7871C13.8087 21.8662 13.827 21.8831 13.8465 21.8989C13.8641 21.9125 13.8837 21.9248 13.8992 21.9399C13.9182 21.9597 13.9317 21.9823 13.9478 22.0041C13.9593 22.0205 13.9749 22.0348 13.9843 22.0526C13.9997 22.0799 14.0085 22.1086 14.0194 22.1374C14.0248 22.153 14.0342 22.1673 14.0382 22.1837C14.0507 22.2302 14.0571 22.2783 14.0572 22.3266V36.3699L19.4632 33.2202V26.0411C19.4632 25.9934 19.47 25.9448 19.4822 25.8991C19.4869 25.8826 19.4956 25.8683 19.501 25.8527C19.5119 25.8239 19.5213 25.7944 19.5361 25.7679C19.5462 25.7501 19.561 25.7358 19.5726 25.7194C19.5887 25.6975 19.6022 25.675 19.6211 25.6558C19.6368 25.6402 19.6563 25.6285 19.6739 25.6149C19.6942 25.5984 19.7117 25.5807 19.7333 25.5677L26.2221 21.7882C26.3042 21.7403 26.3974 21.7151 26.4922 21.7151C26.587 21.7151 26.6801 21.7403 26.7622 21.7882L33.2497 25.5677C33.2727 25.5814 33.2902 25.5984 33.3105 25.6141C33.3273 25.6279 33.3469 25.6402 33.3625 25.6551C33.3813 25.675 33.3948 25.6975 33.4109 25.7194C33.4232 25.7358 33.438 25.7501 33.4476 25.7679C33.463 25.7944 33.4718 25.8239 33.4826 25.8527C33.4887 25.8683 33.4975 25.8826 33.5015 25.8991ZM32.439 33.2203V26.9879L30.1686 28.3103L27.0322 30.1376V36.37L32.439 33.2203ZM25.9515 44.4947V38.2579L22.8663 40.0408L14.0566 45.1285V51.4237L25.9515 44.4947ZM1.08143 23.2726V44.4947L12.975 51.4232V45.1292L6.76169 41.571L6.75973 41.5697L6.75711 41.5683C6.73616 41.556 6.71848 41.5383 6.69897 41.5233C6.68195 41.5095 6.66244 41.4986 6.64764 41.4835L6.64634 41.4815C6.62879 41.4645 6.61661 41.4433 6.60182 41.4242C6.5882 41.4056 6.57209 41.39 6.56122 41.3709L6.56057 41.3688C6.54839 41.3484 6.54093 41.3237 6.53216 41.3006C6.52338 41.28 6.51199 41.2608 6.50649 41.2391C6.49981 41.2131 6.49851 41.185 6.49576 41.1584C6.49314 41.138 6.48764 41.1175 6.48764 41.0969V26.4224L3.35178 24.5943L1.08143 23.2733V23.2726ZM7.02894 19.1782L1.62351 22.3266L7.02763 25.4748L12.4323 22.3258L7.02763 19.1782H7.02894ZM9.83994 38.8264L12.9757 36.9999V23.2726L10.7056 24.5951L7.56893 26.4223V40.1495L9.83994 38.8264ZM26.4921 22.8935L21.0875 26.0418L26.4921 29.1902L31.8961 26.0411L26.4921 22.8935ZM25.9513 30.1376L22.815 28.3103L20.5447 26.9879V33.2203L23.6805 35.047L25.9515 36.37L25.9513 30.1376ZM13.5151 44.1825L21.4426 39.6031L25.4053 37.3147L20.0046 34.1684L13.7864 37.7907L8.11914 41.0922L13.5151 44.1825Z" fill="#FF2D20"/>
<mask id="mask0_128_1621" style="mask-type:alpha" maskUnits="userSpaceOnUse" x="0" y="18" width="34" height="35">
<path d="M33.5015 25.8991C33.514 25.9456 33.5204 25.9935 33.5204 26.0418V33.5365C33.5204 33.7324 33.417 33.9132 33.249 34.0106L27.0324 37.6325V44.8109C27.0323 44.907 27.0074 45.0013 26.96 45.0845C26.9126 45.1677 26.8445 45.2369 26.7624 45.2851L13.7853 52.8442C13.7555 52.8611 13.7232 52.872 13.6907 52.8838C13.6785 52.8878 13.6672 52.8953 13.6543 52.8988C13.5636 52.9229 13.4682 52.9229 13.3775 52.8988C13.3626 52.8948 13.3491 52.8864 13.335 52.881C13.3052 52.87 13.2742 52.8605 13.2459 52.8442L0.271437 45.285C0.189008 45.2371 0.120515 45.168 0.0728609 45.0848C0.025207 45.0016 7.57833e-05 44.9071 0 44.8109L0 22.3266C0 22.2773 0.00680883 22.2294 0.0188552 22.1831C0.0229143 22.1673 0.0323419 22.153 0.0378414 22.1372C0.0479237 22.1086 0.0574822 22.0792 0.0722784 22.0526C0.0823607 22.0348 0.0971568 22.0205 0.109334 22.0041C0.124916 21.9822 0.139057 21.9597 0.157258 21.9405C0.17284 21.9248 0.193135 21.9132 0.210681 21.8995C0.230322 21.8831 0.247737 21.8654 0.269996 21.8524L6.75816 18.0729C6.84033 18.0251 6.93345 18 7.02822 18C7.12299 18 7.21611 18.0251 7.29828 18.0729L13.7858 21.8524H13.7871C13.8087 21.8662 13.827 21.8831 13.8465 21.8989C13.8641 21.9125 13.8837 21.9248 13.8992 21.9399C13.9182 21.9597 13.9317 21.9823 13.9478 22.0041C13.9593 22.0205 13.9749 22.0348 13.9843 22.0526C13.9997 22.0799 14.0085 22.1086 14.0194 22.1374C14.0248 22.153 14.0342 22.1673 14.0382 22.1837C14.0507 22.2302 14.0571 22.2783 14.0572 22.3266V36.3699L19.4632 33.2202V26.0411C19.4632 25.9934 19.47 25.9448 19.4822 25.8991C19.4869 25.8826 19.4956 25.8683 19.501 25.8527C19.5119 25.8239 19.5213 25.7944 19.5361 25.7679C19.5462 25.7501 19.561 25.7358 19.5726 25.7194C19.5887 25.6975 19.6022 25.675 19.6211 25.6558C19.6368 25.6402 19.6563 25.6285 19.6739 25.6149C19.6942 25.5984 19.7117 25.5807 19.7333 25.5677L26.2221 21.7882C26.3042 21.7403 26.3974 21.7151 26.4922 21.7151C26.587 21.7151 26.6801 21.7403 26.7622 21.7882L33.2497 25.5677C33.2727 25.5814 33.2902 25.5984 33.3105 25.6141C33.3273 25.6279 33.3469 25.6402 33.3625 25.6551C33.3813 25.675 33.3948 25.6975 33.4109 25.7194C33.4232 25.7358 33.438 25.7501 33.4476 25.7679C33.463 25.7944 33.4718 25.8239 33.4826 25.8527C33.4887 25.8683 33.4975 25.8826 33.5015 25.8991ZM32.439 33.2203V26.9879L30.1686 28.3103L27.0322 30.1376V36.37L32.439 33.2203ZM25.9515 44.4947V38.2579L22.8663 40.0408L14.0566 45.1285V51.4237L25.9515 44.4947ZM1.08143 23.2726V44.4947L12.975 51.4232V45.1292L6.76169 41.571L6.75973 41.5697L6.75711 41.5683C6.73616 41.556 6.71848 41.5383 6.69897 41.5233C6.68195 41.5095 6.66244 41.4986 6.64764 41.4835L6.64634 41.4815C6.62879 41.4645 6.61661 41.4433 6.60182 41.4242C6.5882 41.4056 6.57209 41.39 6.56122 41.3709L6.56057 41.3688C6.54839 41.3484 6.54093 41.3237 6.53216 41.3006C6.52338 41.28 6.51199 41.2608 6.50649 41.2391C6.49981 41.2131 6.49851 41.185 6.49576 41.1584C6.49314 41.138 6.48764 41.1175 6.48764 41.0969V26.4224L3.35178 24.5943L1.08143 23.2733V23.2726ZM7.02894 19.1782L1.62351 22.3266L7.02763 25.4748L12.4323 22.3258L7.02763 19.1782H7.02894ZM9.83994 38.8264L12.9757 36.9999V23.2726L10.7056 24.5951L7.56893 26.4223V40.1495L9.83994 38.8264ZM26.4921 22.8935L21.0875 26.0418L26.4921 29.1902L31.8961 26.0411L26.4921 22.8935ZM25.9513 30.1376L22.815 28.3103L20.5447 26.9879V33.2203L23.6805 35.047L25.9515 36.37L25.9513 30.1376ZM13.5151 44.1825L21.4426 39.6031L25.4053 37.3147L20.0046 34.1684L13.7864 37.7907L8.11914 41.0922L13.5151 44.1825Z" fill="#FF2D20"/>
</mask>
<g mask="url(#mask0_128_1621)">
</g>
<g clip-path="url(#clip0_128_1621)">
<path d="M52.8555 26.91L46.1672 38.4972L52.5 49.4719L60.8869 34.9442L69.2705 20.417H56.6016L52.8555 26.91Z" fill="#1697F6"/>
<path d="M44.1164 34.9445L44.5553 35.7082L50.8116 24.8666L53.3824 20.417H35.7296L44.1164 34.9445Z" fill="#AEDDFF"/>
<path d="M56.6016 20.417C59.7718 30.8492 52.5 49.4719 52.5 49.4719L46.1672 38.497L56.6016 20.417Z" fill="#1867C0"/>
<path d="M53.3824 20.417C40.0266 20.417 44.5553 35.7082 44.5553 35.7082L53.3824 20.417Z" fill="#7BC6FF"/>
</g>
<circle cx="35" cy="35" r="9.75" fill="white" stroke="#F3F3F3" stroke-width="0.5"/>
<path d="M34.2288 40.7142V29.2856H35.7712V40.7142H34.2288ZM29.2857 35.7673V34.2326H40.7143V35.7673H29.2857Z" fill="#2B2B2B"/>
<defs>
<clipPath id="clip0_128_1621">
<rect width="35" height="30" fill="white" transform="translate(35 20)"/>
</clipPath>
</defs>
</svg>
