<svg width="70" height="70" viewBox="0 0 70 70" fill="none" xmlns="http://www.w3.org/2000/svg">
<path d="M50.8324 51.121C46.6485 56.9479 38.3843 58.675 32.4098 54.9705L21.9176 48.4622C21.2118 48.0305 20.5533 47.5284 19.9542 46.9642C19.3544 46.3999 18.8169 45.7764 18.3501 45.1038C17.8833 44.4313 17.4894 43.7133 17.1744 42.9617C16.8602 42.2098 16.627 41.4282 16.4784 40.6294C16.3543 39.9597 16.2867 39.2806 16.2777 38.6C16.2679 37.9186 16.3167 37.238 16.4227 36.5655C16.5287 35.8922 16.6918 35.2284 16.9098 34.5815C17.1278 33.9345 17.4007 33.3066 17.7254 32.7036C17.502 32.373 17.2958 32.0318 17.1075 31.6812C16.9188 31.3306 16.749 30.9706 16.5979 30.6032C16.4468 30.2358 16.3152 29.8611 16.2032 29.4806C16.0912 29.1 15.9995 28.7143 15.9274 28.325C15.6275 26.6877 15.6671 25.0086 16.0439 23.3865C16.2318 22.5779 16.5017 21.7889 16.8504 21.0322C17.1992 20.2755 17.6239 19.5539 18.1201 18.8791C22.304 13.0522 30.5674 11.3251 36.5419 15.0297L47.0341 21.5108C47.74 21.9434 48.3969 22.4461 48.996 23.0111C49.5951 23.5756 50.1324 24.1991 50.5994 24.8714C51.0662 25.5433 51.4601 26.2612 51.7751 27.0128C52.09 27.7637 52.3238 28.5453 52.4734 29.3437C52.5974 30.0133 52.6643 30.6917 52.6734 31.3724C52.6824 32.053 52.6335 32.7336 52.5268 33.4061C52.4208 34.0787 52.2577 34.7417 52.0389 35.3887C51.8202 36.0349 51.5473 36.6628 51.2226 37.2658C51.4458 37.5959 51.6525 37.9377 51.8412 38.2882C52.0291 38.6388 52.1998 38.9988 52.3509 39.3662C52.502 39.7336 52.6343 40.1083 52.747 40.4889C52.859 40.8687 52.9522 41.2544 53.0251 41.6437C53.174 42.4604 53.2386 43.2896 53.2191 44.1188C53.1995 44.948 53.0951 45.7727 52.9071 46.5821C52.7192 47.3908 52.4493 48.1797 52.1006 48.9365C51.7522 49.6933 51.3274 50.4146 50.8324 51.0895" fill="#FF3E00"/>
<path d="M31.3845 18.3155C30.5634 18.1078 29.7144 18.0234 28.8671 18.0653C28.0199 18.1077 27.1841 18.2746 26.3888 18.5622C25.5934 18.8493 24.8477 19.2528 24.1773 19.7587C23.5074 20.265 22.9206 20.8676 22.4371 21.5459C22.1387 21.952 21.8831 22.3853 21.6741 22.8405C21.4645 23.2954 21.3021 23.7696 21.1893 24.2559C21.0773 24.7425 21.0141 25.2387 21.0028 25.7371C20.9916 26.2355 21.0314 26.7339 21.1216 27.2249C21.1359 27.3047 21.1524 27.3845 21.1705 27.4635C21.1878 27.5433 21.2073 27.6223 21.2284 27.7006C21.2486 27.7797 21.2712 27.858 21.2953 27.9363C21.3186 28.0139 21.3441 28.0914 21.3704 28.1683L21.5681 28.7559L22.1071 28.3644C22.416 28.1449 22.7348 27.9378 23.0617 27.7445C23.3887 27.5506 23.724 27.3706 24.0668 27.2052C24.4088 27.0391 24.7591 26.8868 25.1146 26.75C25.4702 26.6124 25.8317 26.4902 26.1986 26.3826L26.6007 26.2692L26.5647 25.8776C26.5453 25.6112 26.5738 25.3434 26.6488 25.0865C26.6857 24.9577 26.7345 24.8333 26.7939 24.7133C26.8533 24.5933 26.9232 24.4784 27.0029 24.37C27.1489 24.1657 27.3261 23.9844 27.5283 23.8321C27.7298 23.6799 27.9545 23.5584 28.1943 23.4721C28.4341 23.3857 28.6852 23.336 28.9408 23.3235C29.1956 23.3103 29.4512 23.336 29.6985 23.3989C29.7556 23.4135 29.8112 23.4304 29.8669 23.4494C29.9225 23.4684 29.9774 23.4889 30.0307 23.5123C30.0849 23.535 30.1375 23.5599 30.1901 23.587C30.242 23.6133 30.2923 23.6419 30.3419 23.6726L40.8183 30.1816C40.9468 30.26 41.0664 30.3512 41.1754 30.4538C41.2844 30.557 41.3814 30.6704 41.4663 30.7927C41.5513 30.9149 41.6219 31.0459 41.679 31.1827C41.7354 31.3196 41.7775 31.4616 41.8046 31.6065C41.8309 31.755 41.8422 31.905 41.8384 32.0558C41.8346 32.2058 41.8151 32.3551 41.7805 32.5022C41.7467 32.6486 41.6971 32.7913 41.6332 32.9289C41.57 33.0657 41.4919 33.196 41.4017 33.3182C41.2558 33.5224 41.0792 33.7032 40.877 33.8554C40.6748 34.0076 40.45 34.1291 40.211 34.2155C39.9714 34.3018 39.7197 34.3522 39.4645 34.3648C39.209 34.3772 38.9534 34.3516 38.7061 34.2894C38.6497 34.2747 38.5933 34.2579 38.5377 34.2389C38.4821 34.2198 38.4279 34.1994 38.3738 34.1767C38.3197 34.1533 38.2671 34.1284 38.2152 34.1013C38.1634 34.0749 38.1122 34.0457 38.0626 34.0149L34.0395 31.5282C33.8757 31.4272 33.7073 31.332 33.5359 31.2427C33.3638 31.1542 33.1894 31.0715 33.0112 30.9954C32.8331 30.9193 32.6519 30.8497 32.4685 30.7875C32.2851 30.7246 32.0994 30.669 31.9115 30.6199C31.0914 30.4136 30.2442 30.3301 29.3986 30.3726C28.5529 30.415 27.7193 30.5826 26.9255 30.8688C26.1317 31.1556 25.3875 31.5589 24.7185 32.0639C24.0495 32.5688 23.4631 33.1697 22.9798 33.8466C22.6829 34.2528 22.4281 34.6868 22.2198 35.142C22.0109 35.5972 21.8493 36.0714 21.7373 36.5573C21.6252 37.044 21.5636 37.5402 21.5531 38.0386C21.5418 38.5362 21.5816 39.0346 21.6726 39.5249C21.8503 40.4903 22.2328 41.4091 22.7956 42.2225C23.3589 43.0359 24.0903 43.7259 24.9432 44.2482L35.452 50.7565C35.6151 50.8575 35.782 50.9526 35.9526 51.0419C36.1232 51.1304 36.2976 51.2131 36.4743 51.2892C36.6513 51.3654 36.8314 51.4347 37.014 51.4971C37.1959 51.56 37.3808 51.6164 37.568 51.6654C38.3889 51.8725 39.2375 51.9574 40.0839 51.9157C40.9311 51.8733 41.7662 51.7064 42.5615 51.4188C43.3568 51.1319 44.1018 50.7279 44.7723 50.2222C45.442 49.7157 46.0285 49.1128 46.5117 48.4343C46.8094 48.0289 47.0657 47.5957 47.2754 47.1405C47.4852 46.6853 47.6475 46.2118 47.761 45.7251C47.8738 45.2384 47.9369 44.7422 47.9482 44.2438C47.9602 43.7455 47.9211 43.2471 47.8309 42.756C47.8151 42.6755 47.7986 42.595 47.7798 42.5152C47.7618 42.4355 47.7422 42.3557 47.7212 42.2767C47.7009 42.1969 47.6783 42.1178 47.655 42.0395C47.6317 41.9605 47.6077 41.8822 47.5814 41.8046L47.3807 41.217L46.8455 41.6085C46.5358 41.8302 46.2163 42.0381 45.8885 42.2335C45.5608 42.4281 45.224 42.6096 44.8805 42.7772C44.1928 43.1113 43.4774 43.3884 42.7419 43.6057L42.339 43.7191L42.3759 44.1106C42.3871 44.2446 42.3864 44.3792 42.3736 44.5124C42.3616 44.6456 42.3368 44.7781 42.3007 44.9076C42.2639 45.0364 42.2165 45.163 42.1571 45.2838C42.0985 45.4053 42.0286 45.5209 41.9489 45.6307C41.8022 45.8313 41.6251 46.0089 41.4235 46.1576C41.2222 46.3069 40.9986 46.4254 40.7605 46.5089C40.282 46.6779 39.7619 46.7006 39.2698 46.574C39.2127 46.5594 39.1563 46.5425 39.1015 46.5242C39.0458 46.5052 38.991 46.484 38.9368 46.4613C38.8835 46.4386 38.8301 46.413 38.7782 46.3867C38.7264 46.3596 38.6753 46.331 38.6256 46.3003L28.1297 39.803C28.0019 39.7247 27.8824 39.6333 27.7741 39.5308C27.6659 39.4283 27.5682 39.3149 27.4832 39.1934C27.399 39.0712 27.3277 38.941 27.2705 38.8048C27.2134 38.668 27.1713 38.5267 27.1442 38.3818C27.1179 38.2333 27.1066 38.0825 27.1104 37.9317C27.1194 37.63 27.1891 37.3328 27.3156 37.0572C27.3794 36.92 27.4567 36.7891 27.5464 36.6664C27.6914 36.4644 27.8673 36.2844 28.068 36.1336C28.2683 35.9821 28.4911 35.8612 28.7288 35.775C29.2067 35.602 29.7272 35.5742 30.2217 35.6952C30.278 35.7106 30.3344 35.7274 30.39 35.7465C30.4449 35.7655 30.4998 35.7867 30.5539 35.8094C30.6078 35.8322 30.6607 35.8571 30.7125 35.884C30.7644 35.9104 30.8155 35.9389 30.8651 35.9697L34.8882 38.4521C35.0528 38.5545 35.2205 38.6511 35.3926 38.7404C35.564 38.8304 35.7391 38.9131 35.918 38.99C36.0963 39.0661 36.2776 39.1355 36.4615 39.1978C36.6457 39.2608 36.8321 39.3164 37.0208 39.3647C37.8416 39.5725 38.6895 39.6574 39.5367 39.6164C40.3839 39.5747 41.219 39.4079 42.0143 39.121C42.8088 38.8341 43.5545 38.4308 44.2243 37.9244C44.8948 37.4187 45.4811 36.8164 45.9645 36.138C46.2621 35.7318 46.5177 35.2986 46.7274 34.8434C46.9372 34.3884 47.0998 33.9143 47.213 33.428C47.3258 32.9421 47.3889 32.4459 47.401 31.9475C47.413 31.4484 47.3731 30.95 47.2837 30.4597C47.1951 29.9782 47.0552 29.5071 46.8665 29.0538C46.6779 28.6004 46.4411 28.1675 46.1599 27.7621C45.8795 27.3567 45.5563 26.9805 45.1955 26.6402C44.8347 26.2999 44.4385 25.9969 44.0131 25.7364L33.5164 19.2281C33.3517 19.1264 33.1834 19.0306 33.012 18.9413C32.8398 18.852 32.6647 18.7693 32.4858 18.6932C32.3076 18.6163 32.1265 18.5468 31.9423 18.4839C31.7589 18.4209 31.5725 18.3646 31.3845 18.3155Z" fill="white"/>
</svg>
