<svg width="71" height="70" viewBox="0 0 71 70" fill="none" xmlns="http://www.w3.org/2000/svg">
<g clip-path="url(#clip0_153_1538)">
<path d="M33.6811 12.0841C34.8231 11.4341 36.3105 11.4311 37.4514 12.0841C43.1915 15.3096 48.9335 18.5301 54.6726 21.7576C55.752 22.3623 56.4741 23.557 56.4631 24.794V44.2001C56.4711 45.4882 55.6777 46.7115 54.5389 47.3025C48.8177 50.5102 43.0994 53.7219 37.3791 56.9297C36.2135 57.5924 34.6963 57.5414 33.5671 56.8243C31.8519 55.8355 30.1337 54.8515 28.4183 53.8637C28.0678 53.6559 27.6727 53.4904 27.4251 53.1525C27.6439 52.8592 28.0352 52.8226 28.353 52.6946C29.069 52.4682 29.7266 52.1047 30.3843 51.7521C30.5507 51.6389 30.7537 51.6823 30.9132 51.7836C32.3799 52.6199 33.8337 53.4805 35.3053 54.3088C35.6193 54.4891 35.9371 54.2498 36.2055 54.101C41.8198 50.9454 47.441 47.8018 53.0543 44.6452C53.2623 44.5457 53.3773 44.3262 53.3604 44.0996C53.3643 37.6979 53.3614 31.2951 53.3623 24.8935C53.3861 24.6364 53.2365 24.4 53.0028 24.2948C47.3014 21.1017 41.6029 17.9037 35.9025 14.7098C35.8038 14.6423 35.6868 14.6061 35.5669 14.6059C35.4471 14.6057 35.33 14.6416 35.231 14.7089C29.5306 17.9037 23.8331 21.1047 18.1327 24.2976C17.8998 24.403 17.7435 24.6354 17.7712 24.8935C17.7722 31.2951 17.7712 37.6979 17.7712 44.1006C17.7613 44.2111 17.7857 44.322 17.8411 44.4184C17.8966 44.5147 17.9804 44.5918 18.0812 44.6394C19.6024 45.4972 21.1255 46.349 22.6477 47.2039C23.5052 47.663 24.5581 47.9357 25.5029 47.584C26.3367 47.2866 26.9211 46.4405 26.9052 45.5602C26.913 39.1959 26.9012 32.8306 26.9111 26.4672C26.8902 26.1847 27.1597 25.9513 27.436 25.9779C28.1669 25.973 28.8988 25.9681 29.6297 25.9798C29.9347 25.973 30.1447 26.2772 30.107 26.5619C30.104 32.9665 30.1148 39.3712 30.1021 45.7758C30.104 47.4827 29.3989 49.34 27.8113 50.1752C25.8554 51.1828 23.438 50.9691 21.5057 50.0029C19.833 49.1726 18.2367 48.1928 16.5936 47.3033C15.4519 46.7156 14.6624 45.4874 14.6704 44.2002V24.794C14.6585 23.5314 15.4092 22.315 16.5223 21.7191C22.2426 18.5088 27.9618 15.2959 33.6811 12.0841Z" fill="#8CC84B"/>
<path d="M38.6715 25.5269C41.1664 25.3672 43.8372 25.4323 46.0822 26.6545C47.8204 27.5912 48.7841 29.5569 48.8148 31.4774C48.7662 31.7364 48.4939 31.8793 48.2453 31.8615C47.5214 31.8605 46.7974 31.8713 46.0735 31.8566C45.7665 31.8684 45.588 31.5868 45.5495 31.3168C45.3415 30.398 44.8376 29.4879 43.9679 29.0447C42.6329 28.38 41.085 28.4135 39.6293 28.4273C38.5665 28.4834 37.4238 28.5749 36.5234 29.1964C35.8322 29.6672 35.6223 30.6175 35.869 31.3829C36.1015 31.9325 36.7394 32.1098 37.2614 32.2732C40.268 33.0552 43.454 32.9774 46.4032 34.0065C47.6243 34.4261 48.8187 35.2417 49.2366 36.513C49.7833 38.217 49.5437 40.2537 48.3246 41.6217C47.3361 42.7474 45.8962 43.36 44.4602 43.6928C42.5498 44.1164 40.5672 44.1272 38.6271 43.9391C36.8028 43.7323 34.9043 43.2556 33.496 42.0195C32.2917 40.9796 31.7035 39.3593 31.7619 37.7955C31.7758 37.5314 32.0402 37.3472 32.2947 37.3689C33.0236 37.3631 33.7525 37.3611 34.4815 37.3699C34.7726 37.3492 34.9885 37.5994 35.0034 37.8723C35.1379 38.7478 35.4687 39.6667 36.2364 40.1857C37.7179 41.1362 39.5768 41.0711 41.2731 41.0977C42.6785 41.0357 44.2561 41.017 45.403 40.0932C46.0081 39.5663 46.1874 38.6848 46.0238 37.9265C45.8467 37.2862 45.1732 36.9879 44.5948 36.7928C41.6268 35.8591 38.4051 36.1979 35.4658 35.142C34.2725 34.7226 33.1186 33.9297 32.6601 32.7105C32.0204 30.9851 32.3135 28.8508 33.6603 27.529C34.9735 26.2143 36.8692 25.7081 38.6715 25.5269Z" fill="#8CC84B"/>
</g>
<defs>
<clipPath id="clip0_153_1538">
<rect width="42" height="46" fill="white" transform="translate(14.5714 11.5)"/>
</clipPath>
</defs>
</svg>
