<svg width="70" height="70" viewBox="0 0 70 70" fill="none" xmlns="http://www.w3.org/2000/svg">
<path d="M33.5015 25.3991C33.514 25.4456 33.5204 25.4935 33.5204 25.5418V33.0365C33.5204 33.2324 33.417 33.4132 33.249 33.5106L27.0324 37.1325V44.3109C27.0323 44.407 27.0074 44.5013 26.96 44.5845C26.9126 44.6677 26.8445 44.7369 26.7624 44.7851L13.7853 52.3442C13.7555 52.3611 13.7232 52.372 13.6907 52.3838C13.6785 52.3878 13.6672 52.3953 13.6543 52.3988C13.5636 52.4229 13.4682 52.4229 13.3775 52.3988C13.3626 52.3948 13.3491 52.3864 13.335 52.381C13.3052 52.37 13.2742 52.3605 13.2459 52.3442L0.271437 44.785C0.189008 44.7371 0.120515 44.668 0.0728609 44.5848C0.025207 44.5016 7.57833e-05 44.4071 0 44.3109L0 21.8266C0 21.7773 0.00680883 21.7294 0.0188552 21.6831C0.0229143 21.6673 0.0323419 21.653 0.0378414 21.6372C0.0479237 21.6086 0.0574822 21.5792 0.0722784 21.5526C0.0823607 21.5348 0.0971568 21.5205 0.109334 21.5041C0.124916 21.4822 0.139057 21.4597 0.157258 21.4405C0.17284 21.4248 0.193135 21.4132 0.210681 21.3995C0.230322 21.3831 0.247737 21.3654 0.269996 21.3524L6.75816 17.5729C6.84033 17.5251 6.93345 17.5 7.02822 17.5C7.12299 17.5 7.21611 17.5251 7.29828 17.5729L13.7858 21.3524H13.7871C13.8087 21.3662 13.827 21.3831 13.8465 21.3989C13.8641 21.4125 13.8837 21.4248 13.8992 21.4399C13.9182 21.4597 13.9317 21.4823 13.9478 21.5041C13.9593 21.5205 13.9749 21.5348 13.9843 21.5526C13.9997 21.5799 14.0085 21.6086 14.0194 21.6374C14.0248 21.653 14.0342 21.6673 14.0382 21.6837C14.0507 21.7302 14.0571 21.7783 14.0572 21.8266V35.8699L19.4632 32.7202V25.5411C19.4632 25.4934 19.47 25.4448 19.4822 25.3991C19.4869 25.3826 19.4956 25.3683 19.501 25.3527C19.5119 25.3239 19.5213 25.2944 19.5361 25.2679C19.5462 25.2501 19.561 25.2358 19.5726 25.2194C19.5887 25.1975 19.6022 25.175 19.6211 25.1558C19.6368 25.1402 19.6563 25.1285 19.6739 25.1149C19.6942 25.0984 19.7117 25.0807 19.7333 25.0677L26.2221 21.2882C26.3042 21.2403 26.3974 21.2151 26.4922 21.2151C26.587 21.2151 26.6801 21.2403 26.7622 21.2882L33.2497 25.0677C33.2727 25.0814 33.2902 25.0984 33.3105 25.1141C33.3273 25.1279 33.3469 25.1402 33.3625 25.1551C33.3813 25.175 33.3948 25.1975 33.4109 25.2194C33.4232 25.2358 33.438 25.2501 33.4476 25.2679C33.463 25.2944 33.4718 25.3239 33.4826 25.3527C33.4887 25.3683 33.4975 25.3826 33.5015 25.3991ZM32.439 32.7203V26.4879L30.1686 27.8103L27.0322 29.6376V35.87L32.439 32.7203ZM25.9515 43.9947V37.7579L22.8663 39.5408L14.0566 44.6285V50.9237L25.9515 43.9947ZM1.08143 22.7726V43.9947L12.975 50.9232V44.6292L6.76169 41.071L6.75973 41.0697L6.75711 41.0683C6.73616 41.056 6.71848 41.0383 6.69897 41.0233C6.68195 41.0095 6.66244 40.9986 6.64764 40.9835L6.64634 40.9815C6.62879 40.9645 6.61661 40.9433 6.60182 40.9242C6.5882 40.9056 6.57209 40.89 6.56122 40.8709L6.56057 40.8688C6.54839 40.8484 6.54093 40.8237 6.53216 40.8006C6.52338 40.78 6.51199 40.7608 6.50649 40.7391C6.49981 40.7131 6.49851 40.685 6.49576 40.6584C6.49314 40.638 6.48764 40.6175 6.48764 40.5969V25.9224L3.35178 24.0943L1.08143 22.7733V22.7726ZM7.02894 18.6782L1.62351 21.8266L7.02763 24.9748L12.4323 21.8258L7.02763 18.6782H7.02894ZM9.83994 38.3264L12.9757 36.4999V22.7726L10.7056 24.0951L7.56893 25.9223V39.6495L9.83994 38.3264ZM26.4921 22.3935L21.0875 25.5418L26.4921 28.6902L31.8961 25.5411L26.4921 22.3935ZM25.9513 29.6376L22.815 27.8103L20.5447 26.4879V32.7203L23.6805 34.547L25.9515 35.87L25.9513 29.6376ZM13.5151 43.6825L21.4426 39.1031L25.4053 36.8147L20.0046 33.6684L13.7864 37.2907L8.11914 40.5922L13.5151 43.6825Z" fill="#FF2D20"/>
<mask id="mask0_154_1518" style="mask-type:alpha" maskUnits="userSpaceOnUse" x="0" y="17" width="34" height="36">
<path d="M33.5015 25.3991C33.514 25.4456 33.5204 25.4935 33.5204 25.5418V33.0365C33.5204 33.2324 33.417 33.4132 33.249 33.5106L27.0324 37.1325V44.3109C27.0323 44.407 27.0074 44.5013 26.96 44.5845C26.9126 44.6677 26.8445 44.7369 26.7624 44.7851L13.7853 52.3442C13.7555 52.3611 13.7232 52.372 13.6907 52.3838C13.6785 52.3878 13.6672 52.3953 13.6543 52.3988C13.5636 52.4229 13.4682 52.4229 13.3775 52.3988C13.3626 52.3948 13.3491 52.3864 13.335 52.381C13.3052 52.37 13.2742 52.3605 13.2459 52.3442L0.271437 44.785C0.189008 44.7371 0.120515 44.668 0.0728609 44.5848C0.025207 44.5016 7.57833e-05 44.4071 0 44.3109L0 21.8266C0 21.7773 0.00680883 21.7294 0.0188552 21.6831C0.0229143 21.6673 0.0323419 21.653 0.0378414 21.6372C0.0479237 21.6086 0.0574822 21.5792 0.0722784 21.5526C0.0823607 21.5348 0.0971568 21.5205 0.109334 21.5041C0.124916 21.4822 0.139057 21.4597 0.157258 21.4405C0.17284 21.4248 0.193135 21.4132 0.210681 21.3995C0.230322 21.3831 0.247737 21.3654 0.269996 21.3524L6.75816 17.5729C6.84033 17.5251 6.93345 17.5 7.02822 17.5C7.12299 17.5 7.21611 17.5251 7.29828 17.5729L13.7858 21.3524H13.7871C13.8087 21.3662 13.827 21.3831 13.8465 21.3989C13.8641 21.4125 13.8837 21.4248 13.8992 21.4399C13.9182 21.4597 13.9317 21.4823 13.9478 21.5041C13.9593 21.5205 13.9749 21.5348 13.9843 21.5526C13.9997 21.5799 14.0085 21.6086 14.0194 21.6374C14.0248 21.653 14.0342 21.6673 14.0382 21.6837C14.0507 21.7302 14.0571 21.7783 14.0572 21.8266V35.8699L19.4632 32.7202V25.5411C19.4632 25.4934 19.47 25.4448 19.4822 25.3991C19.4869 25.3826 19.4956 25.3683 19.501 25.3527C19.5119 25.3239 19.5213 25.2944 19.5361 25.2679C19.5462 25.2501 19.561 25.2358 19.5726 25.2194C19.5887 25.1975 19.6022 25.175 19.6211 25.1558C19.6368 25.1402 19.6563 25.1285 19.6739 25.1149C19.6942 25.0984 19.7117 25.0807 19.7333 25.0677L26.2221 21.2882C26.3042 21.2403 26.3974 21.2151 26.4922 21.2151C26.587 21.2151 26.6801 21.2403 26.7622 21.2882L33.2497 25.0677C33.2727 25.0814 33.2902 25.0984 33.3105 25.1141C33.3273 25.1279 33.3469 25.1402 33.3625 25.1551C33.3813 25.175 33.3948 25.1975 33.4109 25.2194C33.4232 25.2358 33.438 25.2501 33.4476 25.2679C33.463 25.2944 33.4718 25.3239 33.4826 25.3527C33.4887 25.3683 33.4975 25.3826 33.5015 25.3991ZM32.439 32.7203V26.4879L30.1686 27.8103L27.0322 29.6376V35.87L32.439 32.7203ZM25.9515 43.9947V37.7579L22.8663 39.5408L14.0566 44.6285V50.9237L25.9515 43.9947ZM1.08143 22.7726V43.9947L12.975 50.9232V44.6292L6.76169 41.071L6.75973 41.0697L6.75711 41.0683C6.73616 41.056 6.71848 41.0383 6.69897 41.0233C6.68195 41.0095 6.66244 40.9986 6.64764 40.9835L6.64634 40.9815C6.62879 40.9645 6.61661 40.9433 6.60182 40.9242C6.5882 40.9056 6.57209 40.89 6.56122 40.8709L6.56057 40.8688C6.54839 40.8484 6.54093 40.8237 6.53216 40.8006C6.52338 40.78 6.51199 40.7608 6.50649 40.7391C6.49981 40.7131 6.49851 40.685 6.49576 40.6584C6.49314 40.638 6.48764 40.6175 6.48764 40.5969V25.9224L3.35178 24.0943L1.08143 22.7733V22.7726ZM7.02894 18.6782L1.62351 21.8266L7.02763 24.9748L12.4323 21.8258L7.02763 18.6782H7.02894ZM9.83994 38.3264L12.9757 36.4999V22.7726L10.7056 24.0951L7.56893 25.9223V39.6495L9.83994 38.3264ZM26.4921 22.3935L21.0875 25.5418L26.4921 28.6902L31.8961 25.5411L26.4921 22.3935ZM25.9513 29.6376L22.815 27.8103L20.5447 26.4879V32.7203L23.6805 34.547L25.9515 35.87L25.9513 29.6376ZM13.5151 43.6825L21.4426 39.1031L25.4053 36.8147L20.0046 33.6684L13.7864 37.2907L8.11914 40.5922L13.5151 43.6825Z" fill="#FF2D20"/>
</mask>
<g mask="url(#mask0_154_1518)">
</g>
<g clip-path="url(#clip0_154_1518)">
<path fill-rule="evenodd" clip-rule="evenodd" d="M41.4773 20C39.4232 20 37.9033 21.7554 37.9713 23.6591C38.0366 25.488 37.9518 27.8567 37.341 29.7884C36.7281 31.7255 35.6923 32.953 34 33.1106V34.8894C35.6923 35.0473 36.7281 36.2742 37.341 38.2116C37.9518 40.1433 38.0366 42.512 37.9712 44.3409C37.9032 46.2443 39.4231 48 41.4776 48H62.5254C64.5795 48 66.0992 46.2446 66.0311 44.3409C65.9658 42.512 66.0507 40.1433 66.6614 38.2116C67.2743 36.2742 68.3076 35.0468 70 34.8894V33.1106C68.3077 32.9527 67.2744 31.7258 66.6614 29.7884C66.0506 27.857 65.9658 25.488 66.0311 23.6591C66.0992 21.7557 64.5795 20 62.5254 20H41.477H41.4773ZM58.4068 37.2358C58.4068 39.8571 56.4042 41.4468 53.0809 41.4468H47.4237C47.2619 41.4468 47.1067 41.3841 46.9923 41.2724C46.8778 41.1606 46.8135 41.0091 46.8135 40.8511V27.149C46.8135 26.991 46.8778 26.8394 46.9923 26.7277C47.1067 26.616 47.2619 26.5532 47.4237 26.5532H53.0487C55.8198 26.5532 57.6384 28.0188 57.6384 30.2689C57.6384 31.8482 56.415 33.262 54.8564 33.5097V33.5921C56.9781 33.8193 58.4068 35.2541 58.4068 37.2358V37.2358ZM52.4641 28.4417H49.2384V32.8903H51.9552C54.0554 32.8903 55.2135 32.0645 55.2135 30.5886C55.2133 29.2055 54.2177 28.4417 52.4641 28.4417ZM49.2384 34.6553V39.5577H52.5827C54.7695 39.5577 55.9277 38.701 55.9277 37.091C55.9277 35.4811 54.737 34.6551 52.4421 34.6551H49.2384V34.6553Z" fill="url(#paint0_linear_154_1518)"/>
</g>
<circle cx="35" cy="34.5" r="9.75" fill="white" stroke="#F3F3F3" stroke-width="0.5"/>
<path d="M34.2288 40.2142V28.7856H35.7713V40.2142H34.2288ZM29.2858 35.2673V33.7326H40.7143V35.2673H29.2858Z" fill="#2B2B2B"/>
<defs>
<linearGradient id="paint0_linear_154_1518" x1="42.2286" y1="20.0561" x2="59.1098" y2="48.5337" gradientUnits="userSpaceOnUse">
<stop stop-color="#8E13FD"/>
<stop offset="1" stop-color="#6C10F4"/>
</linearGradient>
<clipPath id="clip0_154_1518">
<rect width="35" height="30" fill="white" transform="translate(35 19.5)"/>
</clipPath>
</defs>
</svg>
