<svg width="71" height="70" viewBox="0 0 71 70" fill="none" xmlns="http://www.w3.org/2000/svg">
<g clip-path="url(#clip0_153_1513)">
<path d="M34.0382 10.5H41.9467V47.2C37.8958 47.9758 34.9137 48.2811 31.6871 48.2811C22.028 48.2708 17 43.9017 17 35.5104C17 27.4255 22.3334 22.1783 30.5981 22.1783C31.8806 22.1783 32.8576 22.2805 34.0382 22.5866V10.5ZM34.3154 29.2004C33.3891 28.8941 32.6259 28.7921 31.6487 28.7921C27.6488 28.7921 25.3383 31.2624 25.3383 35.5917C25.3383 39.8068 27.5471 42.1343 31.5979 42.1343C32.4731 42.1343 33.1856 42.0844 34.3154 41.9312V29.2004Z" fill="#2BA977"/>
<path d="M54.8793 23.1636V41.5388C54.8793 47.8668 54.4111 50.91 53.037 53.5336C51.7545 56.056 50.065 57.6465 46.5739 59.4033L39.2355 55.9019C42.7266 54.2592 44.4161 52.8077 45.4951 50.5925C46.6247 48.3273 46.9809 45.7037 46.9809 38.8029V23.1638L54.8793 23.1636ZM46.184 10.5H54.0924V18.6361H46.184V10.5Z" fill="#2BA977"/>
</g>
<defs>
<clipPath id="clip0_153_1513">
<rect width="38" height="49" fill="white" transform="translate(17 10.5)"/>
</clipPath>
</defs>
</svg>
